# xmcd
#
# Track frame offsets:
#	150
#	14717
#	31670
#	46787
#	62600
#	79502
#	95677
#	111790
#	125027
#	138205
#	154892
#
# Disc length: 2245 seconds
#
# Revision: 3
# Processed by: cddbd v1.5.2PL0 Copyright (c) Steve Scherf et al.
# Submitted via: EasyCDDAExtractor 16.0.1.1
#
DISCID=8808c30b
DTITLE=Holly Dunn - Leave One Bridge Standing
DYEAR=1997
DGENRE=Country
TTITLE0=Leave One Bridge Standing
TTITLE1=Don't Break The Wings
TTITLE2=That Never Stopped Me
TTITLE3=We've Got The Love
TTITLE4=Whatshisname
TTITLE5=Talking Goodbye
TTITLE6=You Just Don't Know It Yet
TTITLE7=For Your Love
TTITLE8=The Real Deal
TTITLE9=The Wonder Of Love
TTITLE10=I'm Not Through Loving You Yet
EXTD=
EXTT0=
EXTT1=
EXTT2=
EXTT3=
EXTT4=
EXTT5=
EXTT6=
EXTT7=
EXTT8=
EXTT9=
EXTT10=
PLAYORDER=
